<?xml version="1.0" encoding="UTF-8" standalone="no"?>
<svg
   xmlns:dc="http://purl.org/dc/elements/1.1/"
   xmlns:cc="http://creativecommons.org/ns#"
   xmlns:rdf="http://www.w3.org/1999/02/22-rdf-syntax-ns#"
   xmlns:svg="http://www.w3.org/2000/svg"
   xmlns="http://www.w3.org/2000/svg"
   viewBox="0 0 709.33331 572"
   height="572"
   width="709.33331"
   xml:space="preserve"
   id="svg2"
   version="1.1"><metadata
     id="metadata8"><rdf:RDF><cc:Work
         rdf:about=""><dc:format>image/svg+xml</dc:format><dc:type
           rdf:resource="http://purl.org/dc/dcmitype/StillImage" /></cc:Work></rdf:RDF></metadata><defs
     id="defs6"><clipPath
       id="clipPath20"
       clipPathUnits="userSpaceOnUse"><path
         id="path18"
         d="M 0,0 H 532 V 429 H 0 Z" /></clipPath></defs><g
     transform="matrix(1.3333333,0,0,-1.3333333,0,572)"
     id="g10"><g
       id="g12" /><g
       id="g14"><g
         clip-path="url(#clipPath20)"
         id="g16"><path
           id="path22"
           style="fill:#ffffff;fill-opacity:1;fill-rule:nonzero;stroke:none"
           d="m -19.5,-60.5 h 691 v 650 h -691 z" /><path
           id="path24"
           style="fill:#00fdff;fill-opacity:0.2;fill-rule:nonzero;stroke:none"
           d="m 253.488,368.508 h 166 v 21 h -166 z" /><g
           transform="matrix(1,0,0,-1,-18.5,588.5)"
           id="g26"><path
             id="path28"
             style="fill:none;stroke:#000000;stroke-width:1;stroke-linecap:round;stroke-linejoin:round;stroke-miterlimit:10;stroke-dasharray:none;stroke-opacity:1"
             d="m 271.988,198.992 h 166 v 21 h -166 z" /></g><g
           transform="matrix(1,0,0,-1,335.988,379.508)"
           id="g30"><text
             id="text34"
             style="font-variant:normal;font-weight:bold;font-size:12px;font-family:Helvetica;-inkscape-font-specification:Helvetica-Bold;writing-mode:lr-tb;fill:#000000;fill-opacity:1;fill-rule:nonzero;stroke:none"
             transform="translate(-74.25879,4)"><tspan
               id="tspan32"
               y="0"
               x="0">T</tspan></text>
</g><g
           transform="matrix(1,0,0,-1,335.988,379.508)"
           id="g36"><text
             id="text40"
             style="font-variant:normal;font-weight:bold;font-size:12px;font-family:Helvetica;-inkscape-font-specification:Helvetica-Bold;writing-mode:lr-tb;fill:#000000;fill-opacity:1;fill-rule:nonzero;stroke:none"
             transform="translate(-67.81348,4)"><tspan
               id="tspan38"
               y="0"
               x="0 6.6743999 10.008 16.6824 20.016001 24.011999 31.3416 34.675201 40.364399 49.0308 56.360401 63.034801 67.0308 74.360397 85.0308 91.7052 96.375603 102.0648">alk to &quot;Customer&quot; </tspan></text>
</g><g
           transform="matrix(1,0,0,-1,335.988,379.508)"
           id="g42"><text
             id="text46"
             style="font-variant:normal;font-weight:normal;font-size:12px;font-family:Helvetica;-inkscape-font-specification:Helvetica;writing-mode:lr-tb;fill:#000000;fill-opacity:1;fill-rule:nonzero;stroke:none"
             transform="translate(37.58496,4)"><tspan
               id="tspan44"
               y="0"
               x="0 3.9960001 12.6624 19.3368 22.670401 26.004 32.678398">(Ch. 7)</tspan></text>
</g><path
           id="path48"
           style="fill:#00fdff;fill-opacity:0.2;fill-rule:nonzero;stroke:none"
           d="M 152.488,298.3637 H 260.476 V 327.652 H 152.488 Z" /><g
           transform="matrix(1,0,0,-1,-18.5,588.5)"
           id="g50"><path
             id="path52"
             style="fill:none;stroke:#000000;stroke-width:1;stroke-linecap:round;stroke-linejoin:round;stroke-miterlimit:10;stroke-dasharray:none;stroke-opacity:1"
             d="m 170.988,260.848 h 107.988 v 29.2883 H 170.988 Z" /></g><g
           transform="matrix(1,0,0,-1,205.982,313.5078)"
           id="g54"><text
             id="text58"
             style="font-variant:normal;font-weight:bold;font-size:12px;font-family:Helvetica;-inkscape-font-specification:Helvetica-Bold;writing-mode:lr-tb;fill:#000000;fill-opacity:1;fill-rule:nonzero;stroke:none"
             transform="translate(-42.34863,4)"><tspan
               id="tspan56"
               y="0"
               x="0 7.3295999 13.9992 21.3288 27.9984 34.667999 41.337601">Legacy </tspan></text>
</g><g
           transform="matrix(1,0,0,-1,205.982,313.5078)"
           id="g60"><text
             id="text64"
             style="font-variant:normal;font-weight:normal;font-size:12px;font-family:Helvetica;-inkscape-font-specification:Helvetica;writing-mode:lr-tb;fill:#000000;fill-opacity:1;fill-rule:nonzero;stroke:none"
             transform="translate(5.674805,4)"><tspan
               id="tspan62"
               y="0"
               x="0 3.9960001 12.6624 19.3368 22.670401 26.004 32.678398">(Ch. 9)</tspan></text>
</g><path
           id="path66"
           style="fill:#00fdff;fill-opacity:0.2;fill-rule:nonzero;stroke:none"
           d="m 199.488,232.3637 h 274 v 29.2883 h -274 z" /><g
           transform="matrix(1,0,0,-1,-18.5,588.5)"
           id="g68"><path
             id="path70"
             style="fill:none;stroke:#000000;stroke-width:1;stroke-linecap:round;stroke-linejoin:round;stroke-miterlimit:10;stroke-dasharray:none;stroke-opacity:1"
             d="m 217.988,326.848 h 274 v 29.2883 h -274 z" /></g><g
           transform="matrix(1,0,0,-1,335.988,247.5078)"
           id="g72"><text
             id="text76"
             style="font-variant:normal;font-weight:bold;font-size:12px;font-family:Helvetica;-inkscape-font-specification:Helvetica-Bold;writing-mode:lr-tb;fill:#000000;fill-opacity:1;fill-rule:nonzero;stroke:none"
             transform="translate(-128.7041,4)"><tspan
               id="tspan74"
               y="0"
               x="0 8.6664 15.3408 22.670401 29.344801 36.019199 39.352798 46.6824 51.352798 55.348801 64.015198 68.6856 72.019203 78.693604 85.367996 92.697601 96.031197 104.6976 111.372 118.0464 121.38 128.70959 136.0392 140.0352 143.3688 152.0352 158.70959 165.384 170.0544 173.388 181.392 185.388 192.71761 197.388 200.7216 207.396 214.0704">Behavior-Driven Design: User Stories </tspan></text>
</g><g
           transform="matrix(1,0,0,-1,335.988,247.5078)"
           id="g78"><text
             id="text82"
             style="font-variant:normal;font-weight:normal;font-size:12px;font-family:Helvetica;-inkscape-font-specification:Helvetica;writing-mode:lr-tb;fill:#000000;fill-opacity:1;fill-rule:nonzero;stroke:none"
             transform="translate(92.03027,4)"><tspan
               id="tspan80"
               y="0"
               x="0 3.9960001 12.6624 19.3368 22.670401 26.004 32.678398">(Ch. 7)</tspan></text>
</g><g
           transform="matrix(1,0,0,-1,335.988,247.5078)"
           id="g84" /><g
           transform="matrix(1,0,0,-1,335.988,247.5078)"
           id="g86" /><g
           transform="matrix(1,0,0,-1,335.988,247.5078)"
           id="g88" /><path
           id="path90"
           style="fill:#fffc78;fill-opacity:1;fill-rule:nonzero;stroke:none"
           d="m 22.5,257.508 h 154 c 5.5228,0 10,-4.4771 10,-10 v -9.2883 c 0,-5.5228 -4.4772,-10 -10,-10 h -154 c -5.52285,0 -10,4.4772 -10,10 0,0 0,0 0,0 v 9.2883 c 0,5.5229 4.47715,10 10,10 0,0 0,0 0,0 z" /><g
           transform="matrix(1,0,0,-1,-18.5,588.5)"
           id="g92"><path
             id="path94"
             style="fill:none;stroke:#000000;stroke-width:3;stroke-linecap:round;stroke-linejoin:round;stroke-miterlimit:10;stroke-dasharray:none;stroke-opacity:1"
             d="m 41,330.992 h 154 c 5.5228,0 10,4.4771 10,10 v 9.2883 c 0,5.5229 -4.4772,10 -10,10 H 41 c -5.52285,0 -10,-4.4771 -10,-10 0,0 0,0 0,0 v -9.2883 c 0,-5.5229 4.47715,-10 10,-10 0,0 0,0 0,0 z" /></g><g
           transform="matrix(1,0,0,-1,99,243.3638)"
           id="g96"><text
             id="text100"
             style="font-variant:normal;font-weight:bold;font-size:14px;font-family:Helvetica;-inkscape-font-specification:Helvetica-Bold;writing-mode:lr-tb;fill:#000000;fill-opacity:1;fill-rule:nonzero;stroke:none"
             transform="translate(-79.61475,5.5)"><tspan
               id="tspan98"
               y="0"
               x="0 10.1108 17.8976 25.684401 29.573601 38.124802 46.675999 50.565201 59.116402 66.903198 71.565201 76.227203 84.014 89.462799 98.014 105.8008">Design patterns </tspan></text>
</g><g
           transform="matrix(1,0,0,-1,99,243.3638)"
           id="g102"><text
             id="text106"
             style="font-variant:normal;font-weight:normal;font-size:14px;font-family:Helvetica;-inkscape-font-specification:Helvetica;writing-mode:lr-tb;fill:#000000;fill-opacity:1;fill-rule:nonzero;stroke:none"
             transform="translate(30.07471,5.5)"><tspan
               id="tspan104"
               y="0"
               x="0 4.6620002 14.7728 22.559601 26.448799 30.337999">(Ch. 1</tspan></text>
</g><g
           transform="matrix(1,0,0,-1,99,243.3638)"
           id="g108"><text
             id="text112"
             style="font-variant:normal;font-weight:normal;font-size:14px;font-family:Helvetica;-inkscape-font-specification:Helvetica;writing-mode:lr-tb;fill:#000000;fill-opacity:1;fill-rule:nonzero;stroke:none"
             transform="translate(67.1665,5.5)"><tspan
               id="tspan110"
               y="0"
               x="0 7.7867999">1)</tspan></text>
</g><g
           transform="matrix(1,0,0,-1,99,243.3638)"
           id="g114" /><g
           transform="matrix(1,0,0,-1,-18.5,588.5)"
           id="g116"><path
             id="path118"
             style="fill:none;stroke:#000000;stroke-width:1;stroke-linecap:round;stroke-linejoin:round;stroke-miterlimit:10;stroke-dasharray:4, 4;stroke-dashoffset:0;stroke-opacity:1"
             d="m 333.8594,220.2183 -70.7581,35.9219" /></g><path
           id="path120"
           style="fill:#000000;fill-opacity:1;fill-rule:nonzero;stroke:none"
           d="m 237.4679,328.7384 8.4914,0.9464 -2.7161,5.3501 z" /><g
           transform="matrix(1,0,0,-1,-18.5,588.5)"
           id="g122"><path
             id="path124"
             style="fill:none;stroke:#000000;stroke-width:1;stroke-linecap:butt;stroke-linejoin:miter;stroke-miterlimit:10;stroke-dasharray:none;stroke-opacity:1"
             d="m 255.9679,259.7616 8.4914,-0.9464 -2.716,-5.3501 z" /></g><g
           transform="matrix(1,0,0,-1,-18.5,588.5)"
           id="g126"><path
             id="path128"
             style="fill:none;stroke:#000000;stroke-width:1;stroke-linecap:round;stroke-linejoin:round;stroke-miterlimit:10;stroke-dasharray:none;stroke-opacity:1"
             d="m 254.2737,290.3626 62.5949,31.7776" /></g><path
           id="path130"
           style="fill:#000000;fill-opacity:1;fill-rule:nonzero;stroke:none"
           d="m 305.502,262.7384 -5.7753,6.2965 -2.7161,-5.3501 z" /><g
           transform="matrix(1,0,0,-1,-18.5,588.5)"
           id="g132"><path
             id="path134"
             style="fill:none;stroke:#000000;stroke-width:1;stroke-linecap:butt;stroke-linejoin:miter;stroke-miterlimit:10;stroke-dasharray:none;stroke-opacity:1"
             d="m 324.002,325.7616 -5.7753,-6.2965 -2.7161,5.3501 z" /></g><path
           id="path136"
           style="fill:#00fdff;fill-opacity:0.2;fill-rule:nonzero;stroke:none"
           d="m 199.488,166.3637 h 274 v 29.2883 h -274 z" /><g
           transform="matrix(1,0,0,-1,-18.5,588.5)"
           id="g138"><path
             id="path140"
             style="fill:none;stroke:#000000;stroke-width:1;stroke-linecap:round;stroke-linejoin:round;stroke-miterlimit:10;stroke-dasharray:none;stroke-opacity:1"
             d="m 217.988,392.848 h 274 v 29.2883 h -274 z" /></g><g
           transform="matrix(1,0,0,-1,335.988,181.5078)"
           id="g142"><text
             id="text146"
             style="font-variant:normal;font-weight:bold;font-size:12px;font-family:Helvetica;-inkscape-font-specification:Helvetica-Bold;writing-mode:lr-tb;fill:#000000;fill-opacity:1;fill-rule:nonzero;stroke:none"
             transform="translate(-122.4697,4)"><tspan
               id="tspan144"
               y="0"
               x="0">T</tspan></text>
</g><g
           transform="matrix(1,0,0,-1,335.988,181.5078)"
           id="g148"><text
             id="text152"
             style="font-variant:normal;font-weight:bold;font-size:12px;font-family:Helvetica;-inkscape-font-specification:Helvetica-Bold;writing-mode:lr-tb;fill:#000000;fill-opacity:1;fill-rule:nonzero;stroke:none"
             transform="translate(-116.0244,4)"><tspan
               id="tspan150"
               y="0"
               x="0 6.6743999 13.3488 17.344801 21.340799 30.0072 34.677601 38.0112 44.6856 51.360001 58.689602 62.023201 70.689598 77.363998 84.038399 90.712799 94.046402 101.376 108.7056 119.376 126.0504 133.38 137.37601 141.37199 144.7056 153.37199 160.7016 164.0352 168.0312 171.36481">est-Driven Development: Unit T</tspan></text>
</g><g
           transform="matrix(1,0,0,-1,335.988,181.5078)"
           id="g154"><text
             id="text158"
             style="font-variant:normal;font-weight:bold;font-size:12px;font-family:Helvetica;-inkscape-font-specification:Helvetica-Bold;writing-mode:lr-tb;fill:#000000;fill-opacity:1;fill-rule:nonzero;stroke:none"
             transform="translate(61.78418,4)"><tspan
               id="tspan156"
               y="0"
               x="0 6.6743999 13.3488 17.344801">est </tspan></text>
</g><g
           transform="matrix(1,0,0,-1,335.988,181.5078)"
           id="g160"><text
             id="text164"
             style="font-variant:normal;font-weight:normal;font-size:12px;font-family:Helvetica;-inkscape-font-specification:Helvetica;writing-mode:lr-tb;fill:#000000;fill-opacity:1;fill-rule:nonzero;stroke:none"
             transform="translate(85.7959,4)"><tspan
               id="tspan162"
               y="0"
               x="0 3.9960001 12.6624 19.3368 22.670401 26.004 32.678398">(Ch. 8)</tspan></text>
</g><g
           transform="matrix(1,0,0,-1,335.988,181.5078)"
           id="g166" /><path
           id="path168"
           style="fill:#00fdff;fill-opacity:0.2;fill-rule:nonzero;stroke:none"
           d="M 255.496,108.508 H 417.48 v 21 H 255.496 Z" /><g
           transform="matrix(1,0,0,-1,-18.5,588.5)"
           id="g170"><path
             id="path172"
             style="fill:none;stroke:#000000;stroke-width:1;stroke-linecap:round;stroke-linejoin:round;stroke-miterlimit:10;stroke-dasharray:none;stroke-opacity:1"
             d="M 273.996,458.992 H 435.98 v 21 H 273.996 Z" /></g><g
           transform="matrix(1,0,0,-1,335.988,119.508)"
           id="g174"><text
             id="text178"
             style="font-variant:normal;font-weight:bold;font-size:12px;font-family:Helvetica;-inkscape-font-specification:Helvetica-Bold;writing-mode:lr-tb;fill:#000000;fill-opacity:1;fill-rule:nonzero;stroke:none"
             transform="translate(-70.36523,4)"><tspan
               id="tspan176"
               y="0"
               x="0 9.9960003 16.670401 23.344801 30.019199 37.348801 42.019199 48.6936 52.027199">Measure V</tspan></text>
</g><g
           transform="matrix(1,0,0,-1,335.988,119.508)"
           id="g180"><text
             id="text184"
             style="font-variant:normal;font-weight:bold;font-size:12px;font-family:Helvetica;-inkscape-font-specification:Helvetica-Bold;writing-mode:lr-tb;fill:#000000;fill-opacity:1;fill-rule:nonzero;stroke:none"
             transform="translate(-10.99219,4)"><tspan
               id="tspan182"
               y="0"
               x="0 6.6743999 10.008 17.337601 24.011999 27.3456 31.3416 38.015999">elocity </tspan></text>
</g><g
           transform="matrix(1,0,0,-1,335.988,119.508)"
           id="g186"><text
             id="text190"
             style="font-variant:normal;font-weight:normal;font-size:12px;font-family:Helvetica;-inkscape-font-specification:Helvetica;writing-mode:lr-tb;fill:#000000;fill-opacity:1;fill-rule:nonzero;stroke:none"
             transform="translate(33.69141,4)"><tspan
               id="tspan188"
               y="0"
               x="0 3.9960001 12.6624 19.3368 22.670401 26.004 32.678398">(Ch. 7)</tspan></text>
</g><g
           transform="matrix(1,0,0,-1,-18.5,588.5)"
           id="g192"><path
             id="path194"
             style="fill:none;stroke:#000000;stroke-width:1;stroke-linecap:round;stroke-linejoin:round;stroke-miterlimit:10;stroke-dasharray:none;stroke-opacity:1"
             d="M 354.988,422.6363 V 448.592" /></g><path
           id="path196"
           style="fill:#000000;fill-opacity:1;fill-rule:nonzero;stroke:none"
           d="m 336.488,131.908 3,8 h -6 z" /><g
           transform="matrix(1,0,0,-1,-18.5,588.5)"
           id="g198"><path
             id="path200"
             style="fill:none;stroke:#000000;stroke-width:1;stroke-linecap:butt;stroke-linejoin:miter;stroke-miterlimit:10;stroke-dasharray:none;stroke-opacity:1"
             d="m 354.988,456.592 3,-8 h -6 z" /></g><path
           id="path202"
           style="fill:#00fdff;fill-opacity:0.2;fill-rule:nonzero;stroke:none"
           d="m 231.5,50.508 h 210 v 21 h -210 z" /><g
           transform="matrix(1,0,0,-1,-18.5,588.5)"
           id="g204"><path
             id="path206"
             style="fill:none;stroke:#000000;stroke-width:1;stroke-linecap:round;stroke-linejoin:round;stroke-miterlimit:10;stroke-dasharray:none;stroke-opacity:1"
             d="m 250,516.992 h 210 v 21 H 250 Z" /></g><g
           transform="matrix(1,0,0,-1,336,61.508)"
           id="g208"><text
             id="text212"
             style="font-variant:normal;font-weight:bold;font-size:12px;font-family:Helvetica;-inkscape-font-specification:Helvetica-Bold;writing-mode:lr-tb;fill:#000000;fill-opacity:1;fill-rule:nonzero;stroke:none"
             transform="translate(-98.36719,4)"><tspan
               id="tspan210"
               y="0"
               x="0 8.6664 15.3408 22.670401 26.004 33.333599 40.007999 43.341599 47.337601 54.667198 58.000801 66.667198 70.000801 77.330399 84.660004 91.989601">Deploy to Cloud </tspan></text>
</g><g
           transform="matrix(1,0,0,-1,336,61.508)"
           id="g214"><text
             id="text218"
             style="font-variant:normal;font-weight:normal;font-size:12px;font-family:Helvetica;-inkscape-font-specification:Helvetica;writing-mode:lr-tb;fill:#000000;fill-opacity:1;fill-rule:nonzero;stroke:none"
             transform="translate(0.2929688,4)"><tspan
               id="tspan216"
               y="0"
               x="0 3.9960001 12.6624 19.3368 22.670401 26.004 32.678398 39.352798 42.686401 49.360802 56.035198 62.709599">(Ch. 12 and </tspan></text>
</g><g
           transform="matrix(1,0,0,-1,336,61.508)"
           id="g220"><text
             id="text224"
             style="font-variant:normal;font-weight:normal;font-size:12px;font-family:Helvetica;-inkscape-font-specification:Helvetica;writing-mode:lr-tb;fill:#000000;fill-opacity:1;fill-rule:nonzero;stroke:none"
             transform="translate(65.67773,4)"><tspan
               id="tspan222"
               y="0"
               x="0 8.0039997 14.6784 18.011999">Ap. </tspan></text>
</g><g
           transform="matrix(1,0,0,-1,336,61.508)"
           id="g226"><text
             id="text230"
             style="font-variant:normal;font-weight:normal;font-size:12px;font-family:Helvetica;-inkscape-font-specification:Helvetica;writing-mode:lr-tb;fill:#000000;fill-opacity:1;fill-rule:nonzero;stroke:none"
             transform="translate(86.36719,4)"><tspan
               id="tspan228"
               y="0"
               x="0 8.0039997">A)</tspan></text>
</g><g
           transform="matrix(1,0,0,-1,-18.5,588.5)"
           id="g232"><path
             id="path234"
             style="fill:none;stroke:#000000;stroke-width:1;stroke-linecap:round;stroke-linejoin:round;stroke-miterlimit:10;stroke-dasharray:none;stroke-opacity:1"
             d="m 354.9903,480.492 0.005,26.1" /></g><path
           id="path236"
           style="fill:#000000;fill-opacity:1;fill-rule:nonzero;stroke:none"
           d="m 336.4973,73.908 2.9984,8.00062 -6,-0.0012 3.0016,-7.99938 z" /><g
           transform="matrix(1,0,0,-1,-18.5,588.5)"
           id="g238"><path
             id="path240"
             style="fill:none;stroke:#000000;stroke-width:1;stroke-linecap:butt;stroke-linejoin:miter;stroke-miterlimit:10;stroke-dasharray:none;stroke-opacity:1"
             d="m 354.9973,514.592 2.9984,-8.0006 -6,10e-4 3.0016,7.9994 z" /></g><g
           transform="matrix(1,0,0,-1,-18.5,588.5)"
           id="g242"><path
             id="path244"
             style="fill:none;stroke:#000000;stroke-width:1;stroke-linecap:round;stroke-linejoin:round;stroke-miterlimit:10;stroke-dasharray:none;stroke-opacity:1"
             d="M 354.988,356.6363 V 382.448" /></g><path
           id="path246"
           style="fill:#000000;fill-opacity:1;fill-rule:nonzero;stroke:none"
           d="m 336.488,198.052 3,8 h -6 z" /><g
           transform="matrix(1,0,0,-1,-18.5,588.5)"
           id="g248"><path
             id="path250"
             style="fill:none;stroke:#000000;stroke-width:1;stroke-linecap:butt;stroke-linejoin:miter;stroke-miterlimit:10;stroke-dasharray:none;stroke-opacity:1"
             d="m 354.988,390.448 3,-8 h -6 z" /></g><g
           transform="matrix(1,0,0,-1,-18.5,588.5)"
           id="g252"><path
             id="path254"
             style="fill:none;stroke:#000000;stroke-width:1;stroke-linecap:round;stroke-linejoin:round;stroke-miterlimit:10;stroke-dasharray:4, 4;stroke-dashoffset:0;stroke-opacity:1"
             d="m 141.5891,330.1695 52.36,-34.3307" /></g><path
           id="path256"
           style="fill:#000000;fill-opacity:1;fill-rule:nonzero;stroke:none"
           d="m 182.1393,297.0478 -8.3351,-1.8778 3.2899,-5.0176 z" /><g
           transform="matrix(1,0,0,-1,-18.5,588.5)"
           id="g258"><path
             id="path260"
             style="fill:none;stroke:#000000;stroke-width:1;stroke-linecap:butt;stroke-linejoin:miter;stroke-miterlimit:10;stroke-dasharray:none;stroke-opacity:1"
             d="m 200.6393,291.4522 -8.3351,1.8778 3.2899,5.0176 z" /></g><g
           transform="matrix(1,0,0,-1,-18.5,588.5)"
           id="g262"><path
             id="path264"
             style="fill:none;stroke:#000000;stroke-width:1;stroke-linecap:round;stroke-linejoin:round;stroke-miterlimit:10;stroke-dasharray:4, 4;stroke-dashoffset:0;stroke-opacity:1"
             d="m 156.2152,360.8346 79.3416,31.5548" /></g><path
           id="path266"
           style="fill:#000000;fill-opacity:1;fill-rule:nonzero;stroke:none"
           d="m 224.4905,193.1542 -6.325,5.744 -2.2173,-5.5752 z" /><g
           transform="matrix(1,0,0,-1,-18.5,588.5)"
           id="g268"><path
             id="path270"
             style="fill:none;stroke:#000000;stroke-width:1;stroke-linecap:butt;stroke-linejoin:miter;stroke-miterlimit:10;stroke-dasharray:none;stroke-opacity:1"
             d="m 242.9905,395.3459 -6.325,-5.7441 -2.2173,5.5752 z" /></g><g
           transform="matrix(1,0,0,-1,-18.5,588.5)"
           id="g272"><path
             id="path274"
             style="fill:none;stroke:#000000;stroke-width:1;stroke-linecap:round;stroke-linejoin:round;stroke-miterlimit:10;stroke-dasharray:none;stroke-opacity:1"
             d="m 354.988,220.492 v 95.956" /></g><path
           id="path276"
           style="fill:#000000;fill-opacity:1;fill-rule:nonzero;stroke:none"
           d="m 336.488,264.052 3,8 h -6 z" /><g
           transform="matrix(1,0,0,-1,-18.5,588.5)"
           id="g278"><path
             id="path280"
             style="fill:none;stroke:#000000;stroke-width:1;stroke-linecap:butt;stroke-linejoin:miter;stroke-miterlimit:10;stroke-dasharray:none;stroke-opacity:1"
             d="m 354.988,324.448 3,-8 h -6 z" /></g><g
           transform="matrix(1,0,0,-1,-18.5,588.5)"
           id="g282"><path
             id="path284"
             style="fill:none;stroke:#000000;stroke-width:1;stroke-linecap:round;stroke-linejoin:round;stroke-miterlimit:10;stroke-dasharray:4, 4;stroke-dashoffset:0;stroke-opacity:1"
             d="M 169.1621,330.5682 C 192.439,323.7128 222.2747,310.7613 239,310 c 11.711,-0.5331 16.9993,4.9102 22.61,10.0526" /></g><path
           id="path286"
           style="fill:#000000;fill-opacity:1;fill-rule:nonzero;stroke:none"
           d="m 249.5051,263.6414 -4.5931,7.2045 -3.6046,-4.7966 z" /><g
           transform="matrix(1,0,0,-1,-18.5,588.5)"
           id="g288"><path
             id="path290"
             style="fill:none;stroke:#000000;stroke-width:1;stroke-linecap:butt;stroke-linejoin:miter;stroke-miterlimit:10;stroke-dasharray:none;stroke-opacity:1"
             d="m 268.0051,324.8586 -4.5931,-7.2045 -3.6046,4.7966 z" /></g><g
           transform="matrix(1,0,0,-1,-18.5,588.5)"
           id="g292"><path
             id="path294"
             style="fill:none;stroke:#000000;stroke-width:1;stroke-linecap:round;stroke-linejoin:round;stroke-miterlimit:10;stroke-dasharray:none;stroke-opacity:1"
             d="M 357,537.992 V 576 l 181,2 2,-406 -185,-1 h -1 l 0.4516,17.5954" /></g><path
           id="path296"
           style="fill:#000000;fill-opacity:1;fill-rule:nonzero;stroke:none"
           d="m 336.1569,391.9072 2.7938,8.0744 -5.9981,-0.154 z" /><g
           transform="matrix(1,0,0,-1,-18.5,588.5)"
           id="g298"><path
             id="path300"
             style="fill:none;stroke:#000000;stroke-width:1;stroke-linecap:butt;stroke-linejoin:miter;stroke-miterlimit:10;stroke-dasharray:none;stroke-opacity:1"
             d="m 354.6569,196.5928 2.7938,-8.0744 -5.9981,0.154 z" /></g></g></g></g></svg>