<?xml version="1.0" encoding="UTF-8" standalone="no"?>
<svg
   xmlns:dc="http://purl.org/dc/elements/1.1/"
   xmlns:cc="http://creativecommons.org/ns#"
   xmlns:rdf="http://www.w3.org/1999/02/22-rdf-syntax-ns#"
   xmlns:svg="http://www.w3.org/2000/svg"
   xmlns="http://www.w3.org/2000/svg"
   viewBox="0 0 676 572"
   height="572"
   width="676"
   xml:space="preserve"
   id="svg2"
   version="1.1"><metadata
     id="metadata8"><rdf:RDF><cc:Work
         rdf:about=""><dc:format>image/svg+xml</dc:format><dc:type
           rdf:resource="http://purl.org/dc/dcmitype/StillImage" /></cc:Work></rdf:RDF></metadata><defs
     id="defs6"><clipPath
       id="clipPath20"
       clipPathUnits="userSpaceOnUse"><path
         id="path18"
         d="M 0,0 H 507 V 429 H 0 Z" /></clipPath></defs><g
     transform="matrix(1.3333333,0,0,-1.3333333,0,572)"
     id="g10"><g
       id="g12" /><g
       id="g14"><g
         clip-path="url(#clipPath20)"
         id="g16"><path
           id="path22"
           style="fill:#ffffff;fill-opacity:1;fill-rule:nonzero;stroke:none"
           d="m -44.5,-60.5 h 691 v 650 h -691 z" /><path
           id="path24"
           style="fill:#00fdff;fill-opacity:0.2;fill-rule:nonzero;stroke:none"
           d="m 228.488,368.508 h 166 v 21 h -166 z" /><g
           transform="matrix(1,0,0,-1,-43.5,588.5)"
           id="g26"><path
             id="path28"
             style="fill:none;stroke:#000000;stroke-width:1;stroke-linecap:round;stroke-linejoin:round;stroke-miterlimit:10;stroke-dasharray:none;stroke-opacity:1"
             d="m 271.988,198.992 h 166 v 21 h -166 z" /></g><g
           transform="matrix(1,0,0,-1,310.988,379.508)"
           id="g30"><text
             id="text34"
             style="font-variant:normal;font-weight:bold;font-size:12px;font-family:Helvetica;-inkscape-font-specification:Helvetica-Bold;writing-mode:lr-tb;fill:#000000;fill-opacity:1;fill-rule:nonzero;stroke:none"
             transform="translate(-74.25879,4)"><tspan
               id="tspan32"
               y="0"
               x="0">T</tspan></text>
</g><g
           transform="matrix(1,0,0,-1,310.988,379.508)"
           id="g36"><text
             id="text40"
             style="font-variant:normal;font-weight:bold;font-size:12px;font-family:Helvetica;-inkscape-font-specification:Helvetica-Bold;writing-mode:lr-tb;fill:#000000;fill-opacity:1;fill-rule:nonzero;stroke:none"
             transform="translate(-67.81348,4)"><tspan
               id="tspan38"
               y="0"
               x="0 6.6743999 10.008 16.6824 20.016001 24.011999 31.3416 34.675201 40.364399 49.0308 56.360401 63.034801 67.0308 74.360397 85.0308 91.7052 96.375603 102.0648">alk to &quot;Customer&quot; </tspan></text>
</g><g
           transform="matrix(1,0,0,-1,310.988,379.508)"
           id="g42"><text
             id="text46"
             style="font-variant:normal;font-weight:normal;font-size:12px;font-family:Helvetica;-inkscape-font-specification:Helvetica;writing-mode:lr-tb;fill:#000000;fill-opacity:1;fill-rule:nonzero;stroke:none"
             transform="translate(37.58496,4)"><tspan
               id="tspan44"
               y="0"
               x="0 3.9960001 12.6624 19.3368 22.670401 26.004 32.678398">(Ch. 7)</tspan></text>
</g><path
           id="path48"
           style="fill:#fffc78;fill-opacity:1;fill-rule:nonzero;stroke:none"
           d="M 137.488,327.652 H 239.5 c 5.5228,0 10,-4.4772 10,-10 v -9.2883 c 0,-5.5228 -4.4772,-10 -10,-10 H 137.488 c -5.5229,0 -10,4.4772 -10,10 0,0 0,0 0,0 v 9.2883 c 0,5.5228 4.4771,10 10,10 0,0 0,0 0,0 z" /><g
           transform="matrix(1,0,0,-1,-43.5,588.5)"
           id="g50"><path
             id="path52"
             style="fill:none;stroke:#000000;stroke-width:3;stroke-linecap:round;stroke-linejoin:round;stroke-miterlimit:10;stroke-dasharray:none;stroke-opacity:1"
             d="M 180.988,260.848 H 283 c 5.5229,0 10,4.4772 10,10 v 9.2883 c 0,5.5228 -4.4771,10 -10,10 H 180.988 c -5.5229,0 -10,-4.4772 -10,-10 0,0 0,0 0,0 v -9.2883 c 0,-5.5228 4.4771,-10 10,-10 0,0 0,0 0,0 z" /></g><g
           transform="matrix(1,0,0,-1,187.994,313.5078)"
           id="g54"><text
             id="text58"
             style="font-variant:normal;font-weight:bold;font-size:14px;font-family:Helvetica;-inkscape-font-specification:Helvetica-Bold;writing-mode:lr-tb;fill:#000000;fill-opacity:1;fill-rule:nonzero;stroke:none"
             transform="translate(-49.78955,5.5)"><tspan
               id="tspan56"
               y="0"
               x="0 8.5511999 16.337999 24.8892 32.675999 40.462799 48.249599 56.028 60.689999 70.800797 79.351997 83.241203 87.130402 94.917198">Legacy (Ch. 9)</tspan></text>
</g><path
           id="path60"
           style="fill:#00fdff;fill-opacity:0.2;fill-rule:nonzero;stroke:none"
           d="m 174.488,232.3637 h 274 v 29.2883 h -274 z" /><g
           transform="matrix(1,0,0,-1,-43.5,588.5)"
           id="g62"><path
             id="path64"
             style="fill:none;stroke:#000000;stroke-width:1;stroke-linecap:round;stroke-linejoin:round;stroke-miterlimit:10;stroke-dasharray:none;stroke-opacity:1"
             d="m 217.988,326.848 h 274 v 29.2883 h -274 z" /></g><g
           transform="matrix(1,0,0,-1,310.988,247.5078)"
           id="g66"><text
             id="text70"
             style="font-variant:normal;font-weight:bold;font-size:12px;font-family:Helvetica;-inkscape-font-specification:Helvetica-Bold;writing-mode:lr-tb;fill:#000000;fill-opacity:1;fill-rule:nonzero;stroke:none"
             transform="translate(-128.7041,4)"><tspan
               id="tspan68"
               y="0"
               x="0 8.6664 15.3408 22.670401 29.344801 36.019199 39.352798 46.6824 51.352798 55.348801 64.015198 68.6856 72.019203 78.693604 85.367996 92.697601 96.031197 104.6976 111.372 118.0464 121.38 128.70959 136.0392 140.0352 143.3688 152.0352 158.70959 165.384 170.0544 173.388 181.392 185.388 192.71761 197.388 200.7216 207.396 214.0704">Behavior-Driven Design: User Stories </tspan></text>
</g><g
           transform="matrix(1,0,0,-1,310.988,247.5078)"
           id="g72"><text
             id="text76"
             style="font-variant:normal;font-weight:normal;font-size:12px;font-family:Helvetica;-inkscape-font-specification:Helvetica;writing-mode:lr-tb;fill:#000000;fill-opacity:1;fill-rule:nonzero;stroke:none"
             transform="translate(92.03027,4)"><tspan
               id="tspan74"
               y="0"
               x="0 3.9960001 12.6624 19.3368 22.670401 26.004 32.678398">(Ch. 7)</tspan></text>
</g><g
           transform="matrix(1,0,0,-1,310.988,247.5078)"
           id="g78" /><g
           transform="matrix(1,0,0,-1,310.988,247.5078)"
           id="g80" /><g
           transform="matrix(1,0,0,-1,310.988,247.5078)"
           id="g82" /><path
           id="path84"
           style="fill:#00fdff;fill-opacity:0.2;fill-rule:nonzero;stroke:none"
           d="m 11.5,228.2197 h 150 v 29.2883 h -150 z" /><g
           transform="matrix(1,0,0,-1,-43.5,588.5)"
           id="g86"><path
             id="path88"
             style="fill:none;stroke:#000000;stroke-width:1;stroke-linecap:round;stroke-linejoin:round;stroke-miterlimit:10;stroke-dasharray:none;stroke-opacity:1"
             d="m 55,330.992 h 150 v 29.2883 H 55 Z" /></g><g
           transform="matrix(1,0,0,-1,86,243.3638)"
           id="g90"><text
             id="text94"
             style="font-variant:normal;font-weight:bold;font-size:12px;font-family:Helvetica;-inkscape-font-specification:Helvetica-Bold;writing-mode:lr-tb;fill:#000000;fill-opacity:1;fill-rule:nonzero;stroke:none"
             transform="translate(-68.24121,4)"><tspan
               id="tspan92"
               y="0"
               x="0 8.6664 15.3408 22.0152 25.348801 32.678398 40.007999 43.341599 50.6712 57.3456 61.341599 65.337601 72.012001 76.682404 84.012001 90.686401">Design patterns </tspan></text>
</g><g
           transform="matrix(1,0,0,-1,86,243.3638)"
           id="g96"><text
             id="text100"
             style="font-variant:normal;font-weight:normal;font-size:12px;font-family:Helvetica;-inkscape-font-specification:Helvetica;writing-mode:lr-tb;fill:#000000;fill-opacity:1;fill-rule:nonzero;stroke:none"
             transform="translate(25.77832,4)"><tspan
               id="tspan98"
               y="0"
               x="0 3.9960001 12.6624 19.3368 22.670401 26.004">(Ch. 1</tspan></text>
</g><g
           transform="matrix(1,0,0,-1,86,243.3638)"
           id="g102"><text
             id="text106"
             style="font-variant:normal;font-weight:normal;font-size:12px;font-family:Helvetica;-inkscape-font-specification:Helvetica;writing-mode:lr-tb;fill:#000000;fill-opacity:1;fill-rule:nonzero;stroke:none"
             transform="translate(57.57129,4)"><tspan
               id="tspan104"
               y="0"
               x="0 6.6743999">1)</tspan></text>
</g><g
           transform="matrix(1,0,0,-1,86,243.3638)"
           id="g108" /><g
           transform="matrix(1,0,0,-1,-43.5,588.5)"
           id="g110"><path
             id="path112"
             style="fill:none;stroke:#000000;stroke-width:1;stroke-linecap:round;stroke-linejoin:round;stroke-miterlimit:10;stroke-dasharray:4, 4;stroke-dashoffset:0;stroke-opacity:1"
             d="m 334.9803,220.2284 -65.6512,35.2293" /></g><path
           id="path114"
           style="fill:#000000;fill-opacity:1;fill-rule:nonzero;stroke:none"
           d="m 218.7799,329.2596 8.4677,1.1393 -2.837,5.2869 z" /><g
           transform="matrix(1,0,0,-1,-43.5,588.5)"
           id="g116"><path
             id="path118"
             style="fill:none;stroke:#000000;stroke-width:1;stroke-linecap:butt;stroke-linejoin:miter;stroke-miterlimit:10;stroke-dasharray:none;stroke-opacity:1"
             d="m 262.2799,259.2404 8.4678,-1.1393 -2.8371,-5.2869 z" /></g><g
           transform="matrix(1,0,0,-1,-43.5,588.5)"
           id="g120"><path
             id="path122"
             style="fill:none;stroke:#000000;stroke-width:1;stroke-linecap:round;stroke-linejoin:round;stroke-miterlimit:10;stroke-dasharray:none;stroke-opacity:1"
             d="m 260.6057,290.8456 57.9282,31.0849" /></g><path
           id="path124"
           style="fill:#000000;fill-opacity:1;fill-rule:nonzero;stroke:none"
           d="m 282.0831,262.7868 -5.6307,6.4262 -2.837,-5.2869 z" /><g
           transform="matrix(1,0,0,-1,-43.5,588.5)"
           id="g126"><path
             id="path128"
             style="fill:none;stroke:#000000;stroke-width:1;stroke-linecap:butt;stroke-linejoin:miter;stroke-miterlimit:10;stroke-dasharray:none;stroke-opacity:1"
             d="m 325.5831,325.7132 -5.6307,-6.4262 -2.837,5.2869 z" /></g><path
           id="path130"
           style="fill:#00fdff;fill-opacity:0.2;fill-rule:nonzero;stroke:none"
           d="m 174.488,166.3637 h 274 v 29.2883 h -274 z" /><g
           transform="matrix(1,0,0,-1,-43.5,588.5)"
           id="g132"><path
             id="path134"
             style="fill:none;stroke:#000000;stroke-width:1;stroke-linecap:round;stroke-linejoin:round;stroke-miterlimit:10;stroke-dasharray:none;stroke-opacity:1"
             d="m 217.988,392.848 h 274 v 29.2883 h -274 z" /></g><g
           transform="matrix(1,0,0,-1,310.988,181.5078)"
           id="g136"><text
             id="text140"
             style="font-variant:normal;font-weight:bold;font-size:12px;font-family:Helvetica;-inkscape-font-specification:Helvetica-Bold;writing-mode:lr-tb;fill:#000000;fill-opacity:1;fill-rule:nonzero;stroke:none"
             transform="translate(-122.4697,4)"><tspan
               id="tspan138"
               y="0"
               x="0">T</tspan></text>
</g><g
           transform="matrix(1,0,0,-1,310.988,181.5078)"
           id="g142"><text
             id="text146"
             style="font-variant:normal;font-weight:bold;font-size:12px;font-family:Helvetica;-inkscape-font-specification:Helvetica-Bold;writing-mode:lr-tb;fill:#000000;fill-opacity:1;fill-rule:nonzero;stroke:none"
             transform="translate(-116.0244,4)"><tspan
               id="tspan144"
               y="0"
               x="0 6.6743999 13.3488 17.344801 21.340799 30.0072 34.677601 38.0112 44.6856 51.360001 58.689602 62.023201 70.689598 77.363998 84.038399 90.712799 94.046402 101.376 108.7056 119.376 126.0504 133.38 137.37601 141.37199 144.7056 153.37199 160.7016 164.0352 168.0312 171.36481">est-Driven Development: Unit T</tspan></text>
</g><g
           transform="matrix(1,0,0,-1,310.988,181.5078)"
           id="g148"><text
             id="text152"
             style="font-variant:normal;font-weight:bold;font-size:12px;font-family:Helvetica;-inkscape-font-specification:Helvetica-Bold;writing-mode:lr-tb;fill:#000000;fill-opacity:1;fill-rule:nonzero;stroke:none"
             transform="translate(61.78418,4)"><tspan
               id="tspan150"
               y="0"
               x="0 6.6743999 13.3488 17.344801">est </tspan></text>
</g><g
           transform="matrix(1,0,0,-1,310.988,181.5078)"
           id="g154"><text
             id="text158"
             style="font-variant:normal;font-weight:normal;font-size:12px;font-family:Helvetica;-inkscape-font-specification:Helvetica;writing-mode:lr-tb;fill:#000000;fill-opacity:1;fill-rule:nonzero;stroke:none"
             transform="translate(85.7959,4)"><tspan
               id="tspan156"
               y="0"
               x="0 3.9960001 12.6624 19.3368 22.670401 26.004 32.678398">(Ch. 8)</tspan></text>
</g><g
           transform="matrix(1,0,0,-1,310.988,181.5078)"
           id="g160" /><path
           id="path162"
           style="fill:#00fdff;fill-opacity:0.2;fill-rule:nonzero;stroke:none"
           d="M 230.496,108.508 H 392.48 v 21 H 230.496 Z" /><g
           transform="matrix(1,0,0,-1,-43.5,588.5)"
           id="g164"><path
             id="path166"
             style="fill:none;stroke:#000000;stroke-width:1;stroke-linecap:round;stroke-linejoin:round;stroke-miterlimit:10;stroke-dasharray:none;stroke-opacity:1"
             d="M 273.996,458.992 H 435.98 v 21 H 273.996 Z" /></g><g
           transform="matrix(1,0,0,-1,310.988,119.508)"
           id="g168"><text
             id="text172"
             style="font-variant:normal;font-weight:bold;font-size:12px;font-family:Helvetica;-inkscape-font-specification:Helvetica-Bold;writing-mode:lr-tb;fill:#000000;fill-opacity:1;fill-rule:nonzero;stroke:none"
             transform="translate(-70.36523,4)"><tspan
               id="tspan170"
               y="0"
               x="0 9.9960003 16.670401 23.344801 30.019199 37.348801 42.019199 48.6936 52.027199">Measure V</tspan></text>
</g><g
           transform="matrix(1,0,0,-1,310.988,119.508)"
           id="g174"><text
             id="text178"
             style="font-variant:normal;font-weight:bold;font-size:12px;font-family:Helvetica;-inkscape-font-specification:Helvetica-Bold;writing-mode:lr-tb;fill:#000000;fill-opacity:1;fill-rule:nonzero;stroke:none"
             transform="translate(-10.99219,4)"><tspan
               id="tspan176"
               y="0"
               x="0 6.6743999 10.008 17.337601 24.011999 27.3456 31.3416 38.015999">elocity </tspan></text>
</g><g
           transform="matrix(1,0,0,-1,310.988,119.508)"
           id="g180"><text
             id="text184"
             style="font-variant:normal;font-weight:normal;font-size:12px;font-family:Helvetica;-inkscape-font-specification:Helvetica;writing-mode:lr-tb;fill:#000000;fill-opacity:1;fill-rule:nonzero;stroke:none"
             transform="translate(33.69141,4)"><tspan
               id="tspan182"
               y="0"
               x="0 3.9960001 12.6624 19.3368 22.670401 26.004 32.678398">(Ch. 7)</tspan></text>
</g><g
           transform="matrix(1,0,0,-1,-43.5,588.5)"
           id="g186"><path
             id="path188"
             style="fill:none;stroke:#000000;stroke-width:1;stroke-linecap:round;stroke-linejoin:round;stroke-miterlimit:10;stroke-dasharray:none;stroke-opacity:1"
             d="M 354.988,422.6363 V 448.592" /></g><path
           id="path190"
           style="fill:#000000;fill-opacity:1;fill-rule:nonzero;stroke:none"
           d="m 311.488,131.908 3,8 h -6 z" /><g
           transform="matrix(1,0,0,-1,-43.5,588.5)"
           id="g192"><path
             id="path194"
             style="fill:none;stroke:#000000;stroke-width:1;stroke-linecap:butt;stroke-linejoin:miter;stroke-miterlimit:10;stroke-dasharray:none;stroke-opacity:1"
             d="m 354.988,456.592 3,-8 h -6 z" /></g><path
           id="path196"
           style="fill:#00fdff;fill-opacity:0.2;fill-rule:nonzero;stroke:none"
           d="m 206.5,50.508 h 210 v 21 h -210 z" /><g
           transform="matrix(1,0,0,-1,-43.5,588.5)"
           id="g198"><path
             id="path200"
             style="fill:none;stroke:#000000;stroke-width:1;stroke-linecap:round;stroke-linejoin:round;stroke-miterlimit:10;stroke-dasharray:none;stroke-opacity:1"
             d="m 250,516.992 h 210 v 21 H 250 Z" /></g><g
           transform="matrix(1,0,0,-1,311,61.508)"
           id="g202"><text
             id="text206"
             style="font-variant:normal;font-weight:bold;font-size:12px;font-family:Helvetica;-inkscape-font-specification:Helvetica-Bold;writing-mode:lr-tb;fill:#000000;fill-opacity:1;fill-rule:nonzero;stroke:none"
             transform="translate(-98.36719,4)"><tspan
               id="tspan204"
               y="0"
               x="0 8.6664 15.3408 22.670401 26.004 33.333599 40.007999 43.341599 47.337601 54.667198 58.000801 66.667198 70.000801 77.330399 84.660004 91.989601">Deploy to Cloud </tspan></text>
</g><g
           transform="matrix(1,0,0,-1,311,61.508)"
           id="g208"><text
             id="text212"
             style="font-variant:normal;font-weight:normal;font-size:12px;font-family:Helvetica;-inkscape-font-specification:Helvetica;writing-mode:lr-tb;fill:#000000;fill-opacity:1;fill-rule:nonzero;stroke:none"
             transform="translate(0.2929688,4)"><tspan
               id="tspan210"
               y="0"
               x="0 3.9960001 12.6624 19.3368 22.670401 26.004 32.678398 39.352798 42.686401 49.360802 56.035198 62.709599">(Ch. 12 and </tspan></text>
</g><g
           transform="matrix(1,0,0,-1,311,61.508)"
           id="g214"><text
             id="text218"
             style="font-variant:normal;font-weight:normal;font-size:12px;font-family:Helvetica;-inkscape-font-specification:Helvetica;writing-mode:lr-tb;fill:#000000;fill-opacity:1;fill-rule:nonzero;stroke:none"
             transform="translate(65.67773,4)"><tspan
               id="tspan216"
               y="0"
               x="0 8.0039997 14.6784 18.011999">Ap. </tspan></text>
</g><g
           transform="matrix(1,0,0,-1,311,61.508)"
           id="g220"><text
             id="text224"
             style="font-variant:normal;font-weight:normal;font-size:12px;font-family:Helvetica;-inkscape-font-specification:Helvetica;writing-mode:lr-tb;fill:#000000;fill-opacity:1;fill-rule:nonzero;stroke:none"
             transform="translate(86.36719,4)"><tspan
               id="tspan222"
               y="0"
               x="0 8.0039997">A)</tspan></text>
</g><g
           transform="matrix(1,0,0,-1,-43.5,588.5)"
           id="g226"><path
             id="path228"
             style="fill:none;stroke:#000000;stroke-width:1;stroke-linecap:round;stroke-linejoin:round;stroke-miterlimit:10;stroke-dasharray:none;stroke-opacity:1"
             d="m 354.9903,480.492 0.005,26.1" /></g><path
           id="path230"
           style="fill:#000000;fill-opacity:1;fill-rule:nonzero;stroke:none"
           d="m 311.4973,73.908 2.9984,8.00062 -6,-0.0012 3.0016,-7.99938 z" /><g
           transform="matrix(1,0,0,-1,-43.5,588.5)"
           id="g232"><path
             id="path234"
             style="fill:none;stroke:#000000;stroke-width:1;stroke-linecap:butt;stroke-linejoin:miter;stroke-miterlimit:10;stroke-dasharray:none;stroke-opacity:1"
             d="m 354.9973,514.592 2.9984,-8.0006 -6,10e-4 3.0016,7.9994 z" /></g><g
           transform="matrix(1,0,0,-1,-43.5,588.5)"
           id="g236"><path
             id="path238"
             style="fill:none;stroke:#000000;stroke-width:1;stroke-linecap:round;stroke-linejoin:round;stroke-miterlimit:10;stroke-dasharray:none;stroke-opacity:1"
             d="M 354.988,356.6363 V 382.448" /></g><path
           id="path240"
           style="fill:#000000;fill-opacity:1;fill-rule:nonzero;stroke:none"
           d="m 311.488,198.052 3,8 h -6 z" /><g
           transform="matrix(1,0,0,-1,-43.5,588.5)"
           id="g242"><path
             id="path244"
             style="fill:none;stroke:#000000;stroke-width:1;stroke-linecap:butt;stroke-linejoin:miter;stroke-miterlimit:10;stroke-dasharray:none;stroke-opacity:1"
             d="m 354.988,390.448 3,-8 h -6 z" /></g><g
           transform="matrix(1,0,0,-1,-43.5,588.5)"
           id="g246"><path
             id="path248"
             style="fill:none;stroke:#000000;stroke-width:1;stroke-linecap:round;stroke-linejoin:round;stroke-miterlimit:10;stroke-dasharray:4, 4;stroke-dashoffset:0;stroke-opacity:1"
             d="m 151.7055,330.7087 49.6018,-34.1125" /></g><path
           id="path250"
           style="fill:#000000;fill-opacity:1;fill-rule:nonzero;stroke:none"
           d="m 164.3989,296.4371 -8.2916,-2.0614 3.4,-4.9438 z" /><g
           transform="matrix(1,0,0,-1,-43.5,588.5)"
           id="g252"><path
             id="path254"
             style="fill:none;stroke:#000000;stroke-width:1;stroke-linecap:butt;stroke-linejoin:miter;stroke-miterlimit:10;stroke-dasharray:none;stroke-opacity:1"
             d="m 207.8989,292.0629 -8.2916,2.0614 3.4,4.9438 z" /></g><g
           transform="matrix(1,0,0,-1,-43.5,588.5)"
           id="g256"><path
             id="path258"
             style="fill:none;stroke:#000000;stroke-width:1;stroke-linecap:round;stroke-linejoin:round;stroke-miterlimit:10;stroke-dasharray:4, 4;stroke-dashoffset:0;stroke-opacity:1"
             d="m 163.7933,360.4814 71.8987,31.5848" /></g><path
           id="path260"
           style="fill:#000000;fill-opacity:1;fill-rule:nonzero;stroke:none"
           d="m 199.5164,193.2162 -6.1178,5.9642 -2.4132,-5.4933 z" /><g
           transform="matrix(1,0,0,-1,-43.5,588.5)"
           id="g262"><path
             id="path264"
             style="fill:none;stroke:#000000;stroke-width:1;stroke-linecap:butt;stroke-linejoin:miter;stroke-miterlimit:10;stroke-dasharray:none;stroke-opacity:1"
             d="m 243.0164,395.2838 -6.1178,-5.9642 -2.4132,5.4933 z" /></g><g
           transform="matrix(1,0,0,-1,-43.5,588.5)"
           id="g266"><path
             id="path268"
             style="fill:none;stroke:#000000;stroke-width:1;stroke-linecap:round;stroke-linejoin:round;stroke-miterlimit:10;stroke-dasharray:none;stroke-opacity:1"
             d="m 354.988,220.492 v 95.956" /></g><path
           id="path270"
           style="fill:#000000;fill-opacity:1;fill-rule:nonzero;stroke:none"
           d="m 311.488,264.052 3,8 h -6 z" /><g
           transform="matrix(1,0,0,-1,-43.5,588.5)"
           id="g272"><path
             id="path274"
             style="fill:none;stroke:#000000;stroke-width:1;stroke-linecap:butt;stroke-linejoin:miter;stroke-miterlimit:10;stroke-dasharray:none;stroke-opacity:1"
             d="m 354.988,324.448 3,-8 h -6 z" /></g><g
           transform="matrix(1,0,0,-1,-43.5,588.5)"
           id="g276"><path
             id="path278"
             style="fill:none;stroke:#000000;stroke-width:1;stroke-linecap:round;stroke-linejoin:round;stroke-miterlimit:10;stroke-dasharray:4, 4;stroke-dashoffset:0;stroke-opacity:1"
             d="M 175.2672,330.8366 C 196.5093,323.8918 223.2921,310.806 239,310 c 11.0753,-0.5683 16.6496,4.9678 22.5403,10.1519" /></g><path
           id="path280"
           style="fill:#000000;fill-opacity:1;fill-rule:nonzero;stroke:none"
           d="m 224.4912,263.6227 -4.681,7.1476 -3.5456,-4.8403 z" /><g
           transform="matrix(1,0,0,-1,-43.5,588.5)"
           id="g282"><path
             id="path284"
             style="fill:none;stroke:#000000;stroke-width:1;stroke-linecap:butt;stroke-linejoin:miter;stroke-miterlimit:10;stroke-dasharray:none;stroke-opacity:1"
             d="m 267.9912,324.8773 -4.681,-7.1476 -3.5456,4.8403 z" /></g><g
           transform="matrix(1,0,0,-1,-43.5,588.5)"
           id="g286"><path
             id="path288"
             style="fill:none;stroke:#000000;stroke-width:1;stroke-linecap:round;stroke-linejoin:round;stroke-miterlimit:10;stroke-dasharray:none;stroke-opacity:1"
             d="M 357,537.992 V 576 l 181,2 2,-406 -185,-1 h -1 l 0.4516,17.5954" /></g><path
           id="path290"
           style="fill:#000000;fill-opacity:1;fill-rule:nonzero;stroke:none"
           d="m 311.1569,391.9072 2.7938,8.0744 -5.9981,-0.154 z" /><g
           transform="matrix(1,0,0,-1,-43.5,588.5)"
           id="g292"><path
             id="path294"
             style="fill:none;stroke:#000000;stroke-width:1;stroke-linecap:butt;stroke-linejoin:miter;stroke-miterlimit:10;stroke-dasharray:none;stroke-opacity:1"
             d="m 354.6569,196.5928 2.7938,-8.0744 -5.9981,0.154 z" /></g></g></g></g></svg>